<?xml version="1.0" encoding="utf-8"?>
<!-- Generator: Adobe Illustrator 16.0.0, SVG Export Plug-In . SVG Version: 6.00 Build 0)  -->
<!DOCTYPE svg PUBLIC "-//W3C//DTD SVG 1.0//EN" "http://www.w3.org/TR/2001/REC-SVG-20010904/DTD/svg10.dtd">
<svg version="1.0" id="Layer_1" xmlns="http://www.w3.org/2000/svg" xmlns:xlink="http://www.w3.org/1999/xlink" x="0px" y="0px"
	 width="684.169px" height="167.145px" viewBox="0 0 684.169 167.145" enable-background="new 0 0 684.169 167.145"
	 xml:space="preserve">
<g>
	<g>
		<path fill="#ED1C24" d="M150.095,81.712v-49.81h36.517v11.202h-23.672v7.766h23.149v11.202h-23.149v8.438h23.672v11.201H150.095z"
			/>
		<path fill="#ED1C24" d="M192.371,68.42v-9.634h17.923v9.634H192.371z"/>
		<path fill="#ED1C24" d="M245.227,81.712l-8.363-16.728h-6.571v16.728h-12.845v-49.81h24.942c11.052,0,17.324,7.318,17.324,16.578
			c0,8.663-5.227,13.293-9.932,14.936l10.156,18.296H245.227z M246.646,48.406c0-3.436-2.763-5.302-6.198-5.302h-10.155v10.679
			h10.155C243.883,53.783,246.646,51.916,246.646,48.406z"/>
		<path fill="#ED1C24" d="M265.952,81.712v-49.81h12.845v49.81H265.952z"/>
		<path fill="#ED1C24" d="M320.527,81.712V61.698h-20.686v20.014h-12.845v-49.81h12.845v18.595h20.686V31.902h12.844v49.81H320.527z
			"/>
		<path fill="#ED1C24" d="M338.102,74.692l6.795-10.007c3.585,3.585,9.11,6.571,15.981,6.571c4.331,0,7.02-1.493,7.02-3.957
			c0-6.572-28.153-1.121-28.153-20.312c0-8.363,7.02-15.831,19.789-15.831c7.99,0,14.936,2.39,20.237,6.944l-7.02,9.634
			c-4.182-3.51-9.633-5.228-14.562-5.228c-3.734,0-5.377,1.27-5.377,3.435c0,6.124,28.153,1.494,28.153,20.014
			c0,10.007-7.394,16.653-20.761,16.653C350.124,82.608,343.104,79.396,338.102,74.692z"/>
	</g>
	<g>
		<path fill="#DCD2C4" d="M72.223,99.57c0.438,0,0.805-0.367,0.807-0.805V86.164c-0.002-0.438-0.369-0.807-0.807-0.809h-6.551
			c-0.438,0.002-0.805,0.371-0.807,0.809v12.602c0.002,0.438,0.369,0.805,0.807,0.805H72.223z"/>
		<path fill="#86D0CA" d="M72.223,103.143h-6.551c-0.438,0.002-0.805,0.369-0.807,0.809v12.6c0.002,0.438,0.369,0.805,0.807,0.807
			h6.551c0.438-0.002,0.805-0.369,0.807-0.807v-12.6C73.027,103.512,72.66,103.145,72.223,103.143z"/>
		<path fill="#EDA726" d="M72.223,120.93h-6.551c-0.438,0-0.805,0.367-0.807,0.807v12.6c0.002,0.439,0.369,0.807,0.807,0.809h6.551
			c0.438-0.002,0.805-0.369,0.807-0.809v-12.6C73.027,121.297,72.66,120.93,72.223,120.93z"/>
		<path fill="#EDA726" d="M76.66,99.57h6.551c0.438,0,0.805-0.367,0.807-0.805V86.164c-0.002-0.438-0.369-0.807-0.807-0.809H76.66
			c-0.438,0.002-0.807,0.371-0.809,0.809v12.602C75.854,99.203,76.223,99.57,76.66,99.57z"/>
		<path fill="#DCD2C4" d="M83.209,103.143H76.66c-0.438,0.002-0.807,0.369-0.809,0.809v12.6c0.002,0.438,0.371,0.805,0.809,0.807
			h6.549c0.439-0.002,0.807-0.369,0.809-0.807v-12.6C84.016,103.512,83.648,103.145,83.209,103.143z"/>
		<path fill="#DCD2C4" d="M83.209,120.93H76.66c-0.438,0-0.807,0.367-0.809,0.807v12.6c0.002,0.439,0.371,0.807,0.809,0.809h6.549
			c0.439-0.002,0.807-0.369,0.809-0.809v-12.6C84.016,121.297,83.648,120.93,83.209,120.93z"/>
		<path fill="#DCD2C4" d="M94.197,99.57c0.438,0,0.807-0.367,0.809-0.805V86.164c-0.002-0.438-0.371-0.807-0.809-0.809h-6.549
			c-0.439,0.002-0.807,0.371-0.809,0.809v12.602c0.002,0.438,0.369,0.805,0.809,0.805H94.197z"/>
		<path fill="#DCD2C4" d="M94.197,103.143h-6.549c-0.438,0.002-0.807,0.369-0.809,0.807v12.602c0.002,0.438,0.371,0.805,0.809,0.807
			h6.549c0.438-0.002,0.807-0.369,0.809-0.807l0,0v-12.602C95.004,103.512,94.635,103.145,94.197,103.143z"/>
		<path fill="#86D0CA" d="M94.197,120.93h-6.549c-0.438,0-0.807,0.367-0.809,0.807v12.6c0.002,0.439,0.371,0.807,0.809,0.809h6.549
			c0.438-0.002,0.807-0.369,0.809-0.809l0,0v-12.6C95.004,121.297,94.635,120.93,94.197,120.93z"/>
		<path fill="#ED1C24" d="M98.826,85.355c-0.438,0.002-0.805,0.371-0.807,0.809v12.602c0.002,0.438,0.369,0.805,0.807,0.805h6.551
			c0.438,0,0.807-0.367,0.807-0.805V86.164c0-0.438-0.369-0.807-0.807-0.809H98.826z"/>
		<path fill="#DCD2C4" d="M105.377,103.143h-6.551c-0.438,0.002-0.805,0.369-0.807,0.809v12.6c0.002,0.438,0.369,0.805,0.807,0.807
			h6.551c0.438-0.002,0.805-0.369,0.807-0.807v-12.6C106.182,103.512,105.814,103.145,105.377,103.143z"/>
		<path fill="#ED1C24" d="M105.377,120.93h-6.551c-0.438,0-0.805,0.367-0.807,0.807v12.6c0.002,0.439,0.369,0.807,0.807,0.809h6.551
			c0.438-0.002,0.805-0.369,0.807-0.809v-12.6C106.182,121.297,105.814,120.93,105.377,120.93z"/>
		<path fill="#DCD2C4" d="M116.365,85.355h-6.551c-0.438,0.002-0.805,0.371-0.807,0.809v12.602c0.002,0.438,0.369,0.805,0.807,0.805
			h6.551c0.438,0,0.805-0.367,0.807-0.805V86.164C117.17,85.727,116.803,85.357,116.365,85.355z"/>
		<path fill="#EDA726" d="M117.17,103.951c0-0.439-0.367-0.807-0.805-0.809h-6.551c-0.438,0.002-0.805,0.369-0.807,0.809v12.6
			c0.002,0.438,0.369,0.805,0.807,0.807l6.551,0.002c0.438-0.004,0.805-0.371,0.805-0.809V103.951z"/>
		<path fill="#BCDA7D" d="M117.17,121.736c0-0.439-0.367-0.807-0.805-0.807h-6.551c-0.438,0-0.805,0.367-0.807,0.807v12.6
			c0.002,0.439,0.369,0.807,0.807,0.809h6.551c0.438-0.002,0.805-0.369,0.805-0.809V121.736z"/>
		<path fill="#86D0CA" d="M127.352,99.57c0.439,0,0.807-0.367,0.807-0.805V86.164c0-0.438-0.367-0.807-0.807-0.809h-6.549
			c-0.441,0.002-0.809,0.371-0.809,0.809v12.602c0,0.438,0.367,0.805,0.809,0.805H127.352z"/>
		<path fill="#DCD2C4" d="M128.158,103.951c0-0.439-0.367-0.807-0.807-0.809h-6.549c-0.439,0.002-0.807,0.369-0.809,0.809v12.6
			c0.002,0.438,0.369,0.805,0.809,0.807h6.549c0.439-0.002,0.807-0.369,0.807-0.807V103.951z"/>
		<path fill="#ED1C24" d="M128.158,121.736c0-0.439-0.367-0.807-0.807-0.807h-6.549c-0.439,0-0.807,0.367-0.809,0.807v12.6
			c0.002,0.439,0.369,0.807,0.809,0.809h6.549c0.439-0.002,0.807-0.369,0.807-0.809V121.736z"/>
		<path fill="#DCD2C4" d="M72.223,32h-6.551c-0.438,0-0.805,0.367-0.807,0.807v12.6c0.002,0.438,0.369,0.807,0.807,0.809h6.551
			c0.438-0.002,0.805-0.371,0.807-0.809v-12.6C73.027,32.367,72.66,32,72.223,32z"/>
		<path fill="#DCD2C4" d="M72.223,64c0.438,0,0.805-0.367,0.807-0.809V50.594c-0.002-0.439-0.369-0.809-0.807-0.809h-6.551
			c-0.438,0-0.805,0.369-0.807,0.809v12.598C64.867,63.633,65.234,64,65.672,64H72.223z"/>
		<path fill="#ED1C24" d="M72.223,67.57h-6.551c-0.438,0.002-0.805,0.369-0.807,0.809v12.598c0.002,0.439,0.369,0.809,0.807,0.809
			h6.551c0.438,0,0.805-0.369,0.807-0.809V68.379C73.027,67.939,72.66,67.572,72.223,67.57z"/>
		<path fill="#EDA726" d="M83.209,32H76.66c-0.438,0-0.807,0.367-0.809,0.807v12.6c0.002,0.439,0.371,0.807,0.809,0.807h6.549
			c0.439,0,0.807-0.367,0.809-0.807v-12.6C84.016,32.367,83.648,32,83.209,32z"/>
		<path fill="#DCD2C4" d="M76.66,64h6.551c0.438,0,0.805-0.367,0.807-0.809V50.594c-0.002-0.439-0.369-0.809-0.807-0.809H76.66
			c-0.438,0-0.807,0.369-0.809,0.809v12.598C75.854,63.633,76.223,64,76.66,64z"/>
		<path fill="#DCD2C4" d="M83.209,67.57H76.66c-0.438,0.002-0.807,0.369-0.809,0.809v12.598c0.002,0.439,0.371,0.809,0.809,0.809
			h6.549c0.439,0,0.807-0.369,0.809-0.809V68.379C84.016,67.939,83.648,67.572,83.209,67.57z"/>
		<path fill="#DCD2C4" d="M94.197,32h-6.549c-0.438,0-0.807,0.367-0.809,0.807v12.6c0.002,0.438,0.371,0.807,0.809,0.809h6.549
			c0.438-0.002,0.807-0.371,0.809-0.809l0,0v-12.6C95.004,32.367,94.635,32,94.197,32z"/>
		<path fill="#86D0CA" d="M94.197,64c0.438,0,0.807-0.367,0.809-0.809V50.594c-0.002-0.439-0.371-0.809-0.809-0.809h-6.549
			c-0.439,0-0.807,0.369-0.809,0.809v12.598C86.842,63.633,87.209,64,87.648,64H94.197z"/>
		<path fill="#BCDA7D" d="M94.197,67.57h-6.549c-0.438,0.002-0.807,0.371-0.809,0.809v12.598c0.002,0.439,0.371,0.809,0.809,0.809
			h6.549c0.438,0,0.807-0.369,0.809-0.809l0,0V68.379C95.004,67.941,94.635,67.572,94.197,67.57z"/>
		<path fill="#EDA726" d="M39.355,99.57c0.439,0,0.809-0.367,0.809-0.805V86.164c0-0.438-0.369-0.807-0.809-0.809h-6.547
			C32.367,85.357,32,85.727,32,86.164v12.602c0,0.438,0.367,0.805,0.809,0.805H39.355z"/>
		<path fill="#DCD2C4" d="M39.357,103.143h-6.549c-0.441,0.002-0.809,0.369-0.809,0.809v12.6c0,0.438,0.367,0.805,0.809,0.807h6.549
			c0.438-0.002,0.807-0.369,0.807-0.807l0,0v-12.6C40.164,103.512,39.795,103.145,39.357,103.143z"/>
		<path fill="#86D0CA" d="M39.357,120.93h-6.549c-0.441,0-0.809,0.367-0.809,0.807v12.6c0,0.439,0.367,0.807,0.809,0.809h6.549
			c0.438-0.002,0.807-0.369,0.807-0.809l0,0v-12.6C40.164,121.297,39.795,120.93,39.357,120.93z"/>
		<path fill="#ED1C24" d="M43.797,99.57h6.547c0.438,0,0.809-0.367,0.809-0.805V86.164c0-0.438-0.371-0.807-0.809-0.809h-6.547
			c-0.441,0.002-0.809,0.371-0.809,0.809v12.602C42.988,99.203,43.355,99.57,43.797,99.57z"/>
		<path fill="#BCDA7D" d="M50.344,117.359c0.438-0.004,0.809-0.371,0.809-0.809v-12.6c0-0.439-0.371-0.807-0.809-0.809h-6.547
			c-0.441,0.002-0.809,0.369-0.809,0.809v12.6c0,0.438,0.367,0.805,0.809,0.807L50.344,117.359z"/>
		<path fill="#DCD2C4" d="M50.344,135.145c0.438-0.002,0.809-0.369,0.809-0.809v-12.6c0-0.439-0.371-0.807-0.809-0.807h-6.547
			c-0.441,0-0.809,0.367-0.809,0.807v12.6c0,0.439,0.367,0.807,0.809,0.809H50.344z"/>
		<path fill="#DCD2C4" d="M54.781,85.355c-0.438,0.002-0.805,0.371-0.807,0.809v12.602c0.002,0.438,0.369,0.805,0.807,0.805h6.551
			c0.438,0,0.805-0.367,0.809-0.805V86.164c-0.004-0.438-0.371-0.807-0.809-0.809H54.781z"/>
		<path fill="#DCD2C4" d="M54.781,117.357h6.551c0.438-0.002,0.805-0.369,0.809-0.807h-0.002l0.002-12.6
			c-0.004-0.439-0.371-0.807-0.809-0.809h-6.551c-0.438,0.002-0.805,0.369-0.805,0.809v12.6
			C53.977,116.988,54.344,117.355,54.781,117.357z"/>
		<path fill="#ED1C24" d="M54.781,135.145h6.551c0.438-0.002,0.805-0.369,0.809-0.809h-0.002l0.002-12.6
			c-0.004-0.439-0.371-0.807-0.809-0.807h-6.551c-0.438,0-0.805,0.367-0.805,0.807v12.6
			C53.977,134.775,54.344,135.143,54.781,135.145z"/>
		<path fill="#EDA726" d="M39.357,32h-6.549C32.367,32,32,32.367,32,32.807v12.6c0,0.439,0.367,0.807,0.809,0.807l6.549,0.002
			c0.438-0.002,0.807-0.369,0.807-0.809l0,0v-12.6C40.164,32.367,39.795,32,39.357,32z"/>
		<path fill="#DCD2C4" d="M39.355,64c0.439,0,0.809-0.367,0.809-0.809V50.594c0-0.439-0.369-0.809-0.809-0.809h-6.547
			c-0.441,0-0.809,0.369-0.809,0.809v12.598C32,63.633,32.367,64,32.809,64H39.355z"/>
		<path fill="#86D0CA" d="M39.357,67.57h-6.549C32.367,67.572,32,67.939,32,68.379v12.598c0,0.439,0.367,0.809,0.809,0.809h6.549
			c0.438,0,0.807-0.369,0.807-0.809l0,0V68.379C40.164,67.939,39.795,67.572,39.357,67.57z"/>
		<path fill="#ED1C24" d="M50.344,46.215c0.438-0.002,0.809-0.369,0.809-0.809v-12.6c0-0.439-0.371-0.807-0.809-0.807h-6.547
			c-0.441,0-0.809,0.367-0.809,0.807v12.6c0,0.439,0.367,0.807,0.809,0.809H50.344z"/>
		<path fill="#DCD2C4" d="M43.797,64h6.547c0.438,0,0.809-0.367,0.809-0.809V50.594c0-0.441-0.371-0.809-0.809-0.809h-6.547
			c-0.441,0-0.809,0.367-0.809,0.809v12.598C42.988,63.633,43.355,64,43.797,64z"/>
		<path fill="#DCD2C4" d="M50.344,81.785c0.438,0,0.809-0.369,0.809-0.809V68.379c0-0.438-0.371-0.807-0.809-0.809h-6.547
			c-0.441,0.002-0.809,0.371-0.809,0.809v12.598c0,0.439,0.367,0.809,0.809,0.809H50.344z"/>
		<path fill="#BCDA7D" d="M54.781,46.215h6.551c0.438-0.002,0.805-0.369,0.809-0.809h-0.002l0.002-12.6
			C62.137,32.367,61.77,32,61.332,32h-6.551c-0.438,0-0.805,0.367-0.805,0.807v12.6C53.977,45.846,54.344,46.213,54.781,46.215z"/>
		<path fill="#EDA726" d="M54.781,49.785c-0.438,0-0.805,0.367-0.807,0.809v12.598C53.977,63.633,54.344,64,54.781,64h6.551
			c0.438,0,0.805-0.367,0.809-0.809V50.594c-0.004-0.441-0.371-0.809-0.809-0.809H54.781z"/>
		<path fill="#DCD2C4" d="M54.781,81.785h6.551c0.438,0,0.805-0.369,0.809-0.809h-0.002l0.002-12.598
			c-0.004-0.439-0.371-0.807-0.809-0.809h-6.551c-0.438,0.002-0.805,0.369-0.805,0.809v12.598
			C53.977,81.416,54.344,81.785,54.781,81.785z"/>
		<path fill="#ED1C24" d="M105.377,32h-6.551c-0.438,0-0.805,0.367-0.807,0.807v12.6c0.002,0.438,0.369,0.807,0.807,0.809h6.551
			c0.438-0.002,0.805-0.371,0.807-0.809v-12.6C106.182,32.367,105.814,32,105.377,32z"/>
		<path fill="#DCD2C4" d="M98.826,49.785c-0.438,0-0.805,0.369-0.807,0.809v12.598C98.021,63.633,98.389,64,98.826,64h6.551
			c0.438,0,0.807-0.367,0.807-0.809V50.594c0-0.439-0.369-0.809-0.807-0.809H98.826z"/>
		<path fill="#DCD2C4" d="M105.377,67.57h-6.551c-0.438,0.002-0.805,0.371-0.807,0.809v12.598c0.002,0.441,0.369,0.809,0.807,0.809
			h6.551c0.438,0,0.805-0.367,0.807-0.809V68.379C106.182,67.941,105.814,67.572,105.377,67.57z"/>
		<path fill="#EDA726" d="M117.17,32.807c0-0.439-0.367-0.807-0.805-0.807h-6.551c-0.438,0-0.805,0.367-0.807,0.807v12.6
			c0.002,0.439,0.369,0.807,0.807,0.809h6.551c0.438-0.002,0.805-0.369,0.805-0.809V32.807z"/>
		<path fill="#DCD2C4" d="M116.365,49.785h-6.551c-0.438,0-0.805,0.367-0.807,0.809v12.598c0.002,0.441,0.369,0.809,0.807,0.809
			h6.551c0.438,0,0.805-0.367,0.807-0.809V50.594C117.17,50.152,116.803,49.785,116.365,49.785z"/>
		<path fill="#EDA726" d="M117.17,68.379c0-0.438-0.367-0.807-0.805-0.809h-6.551c-0.438,0.002-0.805,0.371-0.807,0.809v12.598
			c0.002,0.439,0.369,0.809,0.807,0.809h6.551c0.438,0,0.805-0.369,0.805-0.809V68.379z"/>
		<path fill="#86D0CA" d="M128.158,32.807c0-0.439-0.367-0.807-0.807-0.807h-6.549c-0.439,0-0.807,0.367-0.809,0.807v12.6
			c0.002,0.439,0.369,0.807,0.809,0.809h6.549c0.439-0.002,0.807-0.369,0.807-0.809V32.807z"/>
		<path fill="#DCD2C4" d="M127.352,64c0.439,0,0.807-0.367,0.807-0.809V50.594c0-0.441-0.367-0.809-0.807-0.809h-6.549
			c-0.441,0-0.809,0.367-0.809,0.809v12.598c0,0.441,0.367,0.809,0.809,0.809H127.352z"/>
		<path fill="#ED1C24" d="M128.158,68.379c0-0.438-0.367-0.807-0.807-0.809h-6.549c-0.439,0.002-0.807,0.371-0.809,0.809v12.598
			c0.002,0.439,0.369,0.809,0.809,0.809h6.549c0.439,0,0.807-0.369,0.807-0.809V68.379z"/>
	</g>
	<g>
		<path fill="#AB9C89" d="M150.626,109.083V91.74h11.883v2.678h-8.84v4.473h8.658v2.678h-8.658v4.837h8.84v2.678H150.626z"/>
		<path fill="#AB9C89" d="M165.609,102.219V91.74h3.095v10.4c0,2.756,1.534,4.551,4.42,4.551s4.42-1.795,4.42-4.551v-10.4h3.095
			v10.479c0,4.29-2.471,7.176-7.515,7.176C168.105,109.395,165.609,106.509,165.609,102.219z"/>
		<path fill="#AB9C89" d="M194.325,109.083l-3.822-6.475h-3.043v6.475h-3.042V91.74h7.618c3.433,0,5.694,2.21,5.694,5.435
			c0,3.067-2.027,4.758-4.134,5.096l4.264,6.812H194.325z M194.61,97.148c0-1.664-1.248-2.73-2.964-2.73h-4.187v5.513h4.187
			C193.362,99.931,194.61,98.839,194.61,97.148z"/>
		<path fill="#AB9C89" d="M199.739,100.425c0-5.175,3.666-8.971,8.866-8.971c5.175,0,8.866,3.796,8.866,8.971
			c0,5.174-3.691,8.97-8.866,8.97C203.405,109.395,199.739,105.599,199.739,100.425z M214.353,100.425
			c0-3.588-2.263-6.267-5.747-6.267c-3.51,0-5.746,2.679-5.746,6.267c0,3.562,2.236,6.267,5.746,6.267
			C212.09,106.691,214.353,103.986,214.353,100.425z"/>
		<path fill="#AB9C89" d="M220.396,109.083V91.74h7.645c3.641,0,5.643,2.471,5.643,5.435c0,2.938-2.028,5.408-5.643,5.408h-4.603
			v6.5H220.396z M230.563,97.175c0-1.664-1.223-2.757-2.938-2.757h-4.187v5.486h4.187C229.341,99.904,230.563,98.812,230.563,97.175
			z"/>
		<path fill="#AB9C89" d="M235.98,109.083V91.74h11.883v2.678h-8.841v4.473h8.659v2.678h-8.659v4.837h8.841v2.678H235.98z"/>
		<path fill="#AB9C89" d="M263.44,109.083l-1.274-3.354h-7.956l-1.274,3.354h-3.458l6.812-17.343h3.796l6.812,17.343H263.44z
			 M258.188,94.782l-3.12,8.269h6.24L258.188,94.782z"/>
		<path fill="#AB9C89" d="M280.883,109.083l-9.048-12.402v12.402h-3.043V91.74h3.12l8.866,12.013V91.74h3.043v17.343H280.883z"/>
		<path fill="#AB9C89" d="M304.126,109.083l-3.821-6.475h-3.042v6.475h-3.043V91.74h7.619c3.432,0,5.693,2.21,5.693,5.435
			c0,3.067-2.027,4.758-4.134,5.096l4.265,6.812H304.126z M304.412,97.148c0-1.664-1.248-2.73-2.964-2.73h-4.186v5.513h4.186
			C303.164,99.931,304.412,98.839,304.412,97.148z"/>
		<path fill="#AB9C89" d="M310.573,109.083V91.74h11.883v2.678h-8.84v4.473h8.658v2.678h-8.658v4.837h8.84v2.678H310.573z"/>
		<path fill="#AB9C89" d="M324.401,106.639l1.716-2.366c1.17,1.274,3.067,2.419,5.486,2.419c2.496,0,3.458-1.223,3.458-2.393
			c0-3.641-10.089-1.378-10.089-7.748c0-2.887,2.496-5.097,6.318-5.097c2.679,0,4.889,0.884,6.475,2.444l-1.716,2.262
			c-1.379-1.378-3.225-2.002-5.045-2.002c-1.768,0-2.912,0.885-2.912,2.158c0,3.25,10.089,1.248,10.089,7.696
			c0,2.886-2.055,5.382-6.708,5.382C328.275,109.395,325.961,108.251,324.401,106.639z"/>
		<path fill="#AB9C89" d="M341.069,109.083V91.74h11.883v2.678h-8.84v4.473h8.658v2.678h-8.658v4.837h8.84v2.678H341.069z"/>
		<path fill="#AB9C89" d="M368.528,109.083l-1.274-3.354h-7.956l-1.274,3.354h-3.458l6.812-17.343h3.796l6.812,17.343H368.528z
			 M363.276,94.782l-3.12,8.269h6.24L363.276,94.782z"/>
		<path fill="#AB9C89" d="M383.788,109.083l-3.822-6.475h-3.043v6.475h-3.042V91.74h7.618c3.433,0,5.694,2.21,5.694,5.435
			c0,3.067-2.027,4.758-4.134,5.096l4.264,6.812H383.788z M384.073,97.148c0-1.664-1.248-2.73-2.964-2.73h-4.187v5.513h4.187
			C382.825,99.931,384.073,98.839,384.073,97.148z"/>
		<path fill="#AB9C89" d="M389.171,100.425c0-5.356,3.979-8.971,9.101-8.971c3.484,0,5.668,1.794,6.942,3.874l-2.574,1.353
			c-0.832-1.456-2.522-2.522-4.368-2.522c-3.433,0-5.98,2.601-5.98,6.267c0,3.614,2.548,6.267,5.98,6.267
			c1.846,0,3.536-1.093,4.368-2.522l2.6,1.3c-1.325,2.08-3.483,3.926-6.968,3.926C393.149,109.395,389.171,105.755,389.171,100.425z
			"/>
		<path fill="#AB9C89" d="M419.739,109.083v-7.593h-9.021v7.593h-3.043V91.74h3.043v7.072h9.021V91.74h3.043v17.343H419.739z"/>
		<path fill="#AB9C89" d="M433.181,109.083V91.74h3.043v17.343H433.181z"/>
		<path fill="#AB9C89" d="M452.099,109.083l-9.049-12.402v12.402h-3.042V91.74h3.12l8.867,12.013V91.74h3.042v17.343H452.099z"/>
		<path fill="#AB9C89" d="M458.862,109.083V91.74h11.883v2.678h-8.84v4.473h8.658v2.678h-8.658v7.515H458.862z"/>
		<path fill="#AB9C89" d="M483.304,109.083l-3.822-6.475h-3.043v6.475h-3.042V91.74h7.618c3.433,0,5.694,2.21,5.694,5.435
			c0,3.067-2.027,4.758-4.134,5.096l4.264,6.812H483.304z M483.589,97.148c0-1.664-1.248-2.73-2.964-2.73h-4.187v5.513h4.187
			C482.341,99.931,483.589,98.839,483.589,97.148z"/>
		<path fill="#AB9C89" d="M502.327,109.083l-1.274-3.354h-7.956l-1.274,3.354h-3.458l6.812-17.343h3.796l6.812,17.343H502.327z
			 M497.075,94.782l-3.12,8.269h6.24L497.075,94.782z"/>
		<path fill="#AB9C89" d="M506.72,106.639l1.717-2.366c1.17,1.274,3.068,2.419,5.486,2.419c2.496,0,3.458-1.223,3.458-2.393
			c0-3.641-10.089-1.378-10.089-7.748c0-2.887,2.496-5.097,6.318-5.097c2.678,0,4.889,0.884,6.475,2.444l-1.717,2.262
			c-1.378-1.378-3.224-2.002-5.044-2.002c-1.768,0-2.912,0.885-2.912,2.158c0,3.25,10.089,1.248,10.089,7.696
			c0,2.886-2.055,5.382-6.709,5.382C510.595,109.395,508.28,108.251,506.72,106.639z"/>
		<path fill="#AB9C89" d="M527.32,109.083V94.418h-5.253V91.74h13.547v2.678h-5.252v14.665H527.32z"/>
		<path fill="#AB9C89" d="M547.747,109.083l-3.822-6.475h-3.043v6.475h-3.042V91.74h7.618c3.433,0,5.694,2.21,5.694,5.435
			c0,3.067-2.027,4.758-4.134,5.096l4.264,6.812H547.747z M548.032,97.148c0-1.664-1.248-2.73-2.964-2.73h-4.187v5.513h4.187
			C546.784,99.931,548.032,98.839,548.032,97.148z"/>
		<path fill="#AB9C89" d="M553.959,102.219V91.74h3.095v10.4c0,2.756,1.534,4.551,4.42,4.551s4.42-1.795,4.42-4.551v-10.4h3.095
			v10.479c0,4.29-2.471,7.176-7.515,7.176C556.455,109.395,553.959,106.509,553.959,102.219z"/>
		<path fill="#AB9C89" d="M571.801,100.425c0-5.356,3.979-8.971,9.101-8.971c3.484,0,5.668,1.794,6.942,3.874l-2.574,1.353
			c-0.832-1.456-2.522-2.522-4.368-2.522c-3.432,0-5.98,2.601-5.98,6.267c0,3.614,2.549,6.267,5.98,6.267
			c1.846,0,3.536-1.093,4.368-2.522l2.601,1.3c-1.326,2.08-3.484,3.926-6.969,3.926
			C575.779,109.395,571.801,105.755,571.801,100.425z"/>
		<path fill="#AB9C89" d="M594.577,109.083V94.418h-5.252V91.74h13.546v2.678h-5.252v14.665H594.577z"/>
		<path fill="#AB9C89" d="M605.096,102.219V91.74h3.095v10.4c0,2.756,1.534,4.551,4.42,4.551s4.42-1.795,4.42-4.551v-10.4h3.095
			v10.479c0,4.29-2.471,7.176-7.515,7.176C607.592,109.395,605.096,106.509,605.096,102.219z"/>
		<path fill="#AB9C89" d="M633.81,109.083l-3.821-6.475h-3.042v6.475h-3.043V91.74h7.619c3.432,0,5.693,2.21,5.693,5.435
			c0,3.067-2.027,4.758-4.134,5.096l4.265,6.812H633.81z M634.096,97.148c0-1.664-1.248-2.73-2.964-2.73h-4.186v5.513h4.186
			C632.848,99.931,634.096,98.839,634.096,97.148z"/>
		<path fill="#AB9C89" d="M640.258,109.083V91.74h11.883v2.678H643.3v4.473h8.659v2.678H643.3v4.837h8.841v2.678H640.258z"/>
		<path fill="#AB9C89" d="M150.626,135.083V117.74h11.883v2.678h-8.84v4.473h8.658v2.678h-8.658v7.515H150.626z"/>
		<path fill="#AB9C89" d="M164.359,126.425c0-5.175,3.666-8.971,8.866-8.971c5.175,0,8.867,3.796,8.867,8.971
			c0,5.174-3.692,8.97-8.867,8.97C168.025,135.395,164.359,131.599,164.359,126.425z M178.972,126.425
			c0-3.588-2.262-6.267-5.746-6.267c-3.51,0-5.746,2.679-5.746,6.267c0,3.562,2.236,6.267,5.746,6.267
			C176.71,132.691,178.972,129.986,178.972,126.425z"/>
		<path fill="#AB9C89" d="M194.923,135.083l-3.822-6.475h-3.043v6.475h-3.042V117.74h7.618c3.433,0,5.694,2.21,5.694,5.435
			c0,3.067-2.027,4.758-4.134,5.096l4.264,6.812H194.923z M195.208,123.148c0-1.664-1.248-2.73-2.964-2.73h-4.187v5.513h4.187
			C193.96,125.931,195.208,124.839,195.208,123.148z"/>
		<path fill="#AB9C89" d="M220.143,135.083v-7.593h-9.022v7.593h-3.042V117.74h3.042v7.072h9.022v-7.072h3.042v17.343H220.143z"/>
		<path fill="#AB9C89" d="M227.011,135.083V117.74h11.883v2.678h-8.84v4.473h8.658v2.678h-8.658v4.837h8.84v2.678H227.011z"/>
		<path fill="#AB9C89" d="M252.14,135.083l-3.821-6.475h-3.042v6.475h-3.043V117.74h7.619c3.432,0,5.693,2.21,5.693,5.435
			c0,3.067-2.027,4.758-4.134,5.096l4.265,6.812H252.14z M252.426,123.148c0-1.664-1.248-2.73-2.964-2.73h-4.186v5.513h4.186
			C251.178,125.931,252.426,124.839,252.426,123.148z"/>
		<path fill="#AB9C89" d="M258.574,135.083V117.74h3.042v17.343H258.574z"/>
		<path fill="#AB9C89" d="M269.066,135.083v-14.665h-5.253v-2.678h13.547v2.678h-5.252v14.665H269.066z"/>
		<path fill="#AB9C89" d="M289.97,135.083l-1.274-3.354h-7.956l-1.274,3.354h-3.458l6.812-17.343h3.796l6.812,17.343H289.97z
			 M284.718,120.782l-3.12,8.269h6.24L284.718,120.782z"/>
		<path fill="#AB9C89" d="M293.76,126.425c0-5.46,4.057-8.971,9.101-8.971c3.38,0,5.59,1.612,6.969,3.589l-2.471,1.43
			c-0.936-1.3-2.574-2.314-4.498-2.314c-3.432,0-5.98,2.601-5.98,6.267c0,3.614,2.549,6.267,5.98,6.267
			c1.768,0,3.328-0.807,4.108-1.561v-2.678h-5.2v-2.679h8.216v6.475c-1.689,1.897-4.134,3.172-7.124,3.172
			C297.816,135.421,293.76,131.859,293.76,126.425z"/>
		<path fill="#AB9C89" d="M313.363,135.083V117.74h11.883v2.678h-8.841v4.473h8.659v2.678h-8.659v4.837h8.841v2.678H313.363z"/>
		<path fill="#AB9C89" d="M333.956,132.639l1.716-2.366c1.17,1.274,3.067,2.419,5.486,2.419c2.496,0,3.458-1.223,3.458-2.393
			c0-3.641-10.089-1.378-10.089-7.748c0-2.887,2.496-5.097,6.318-5.097c2.679,0,4.889,0.884,6.475,2.444l-1.716,2.262
			c-1.379-1.378-3.225-2.002-5.045-2.002c-1.768,0-2.912,0.885-2.912,2.158c0,3.25,10.089,1.248,10.089,7.696
			c0,2.886-2.055,5.382-6.708,5.382C337.83,135.395,335.516,134.251,333.956,132.639z"/>
		<path fill="#AB9C89" d="M349.548,126.425c0-5.356,3.979-8.971,9.101-8.971c3.484,0,5.668,1.794,6.942,3.874l-2.574,1.353
			c-0.832-1.456-2.522-2.522-4.368-2.522c-3.433,0-5.98,2.601-5.98,6.267c0,3.614,2.548,6.267,5.98,6.267
			c1.846,0,3.536-1.093,4.368-2.522l2.6,1.3c-1.325,2.08-3.483,3.926-6.968,3.926C353.526,135.395,349.548,131.755,349.548,126.425z
			"/>
		<path fill="#AB9C89" d="M368.038,135.083V117.74h3.043v17.343H368.038z"/>
		<path fill="#AB9C89" d="M374.865,135.083V117.74h11.883v2.678h-8.841v4.473h8.659v2.678h-8.659v4.837h8.841v2.678H374.865z"/>
		<path fill="#AB9C89" d="M402.18,135.083l-9.048-12.402v12.402h-3.043V117.74h3.12l8.866,12.013V117.74h3.043v17.343H402.18z"/>
		<path fill="#AB9C89" d="M408.041,126.425c0-5.356,3.979-8.971,9.101-8.971c3.484,0,5.668,1.794,6.942,3.874l-2.574,1.353
			c-0.832-1.456-2.522-2.522-4.368-2.522c-3.432,0-5.98,2.601-5.98,6.267c0,3.614,2.549,6.267,5.98,6.267
			c1.846,0,3.536-1.093,4.368-2.522l2.601,1.3c-1.326,2.08-3.484,3.926-6.969,3.926C412.02,135.395,408.041,131.755,408.041,126.425
			z"/>
		<path fill="#AB9C89" d="M426.545,135.083V117.74h11.883v2.678h-8.841v4.473h8.659v2.678h-8.659v4.837h8.841v2.678H426.545z"/>
	</g>
</g>
<g>
</g>
<g>
</g>
<g>
</g>
<g>
</g>
<g>
</g>
<g>
</g>
</svg>
